# xmcd
#
# Track frame offsets: 
#        150
#        10842
#        29405
#        52573
#        71300
#        85948
#        99247
#        111642
#        136434
#        149464
#        162610
#        180607
#        197770
#
# Disc length: 2919 seconds
#
# Revision: 1
# Processed by: cddbd v1.5.2PL0 Copyright (c) Steve Scherf et al.
# Submitted via: ExactAudioCopy v1.0b3
#
DISCID=af0b650d
DTITLE=Motor City Josh  - Forty Four - A Tribute To Howlin' Wolf
DYEAR=2008
DGENRE=Blues
TTITLE0=Forty Four
TTITLE1=Motor City Josh - Spoonful
TTITLE2=Motor City Josh -  Evil Is Goin' On
TTITLE3=Motor City Josh - Back Door Man
TTITLE4=Motor City Josh - 300 Lbs of Joy
TTITLE5=Motor City Josh - I Ain't Superstitious
TTITLE6=Motor City Josh - Sittin' On Top of the World
TTITLE7=Motor City Josh - Smokestack Lightnin'
TTITLE8=Little Red Rooster
TTITLE9=Motor City Josh - Built for Comfort
TTITLE10=Motor City Josh - Meet Me in the Bottom
TTITLE11=Motor City Josh - Wang Dang Doodle
TTITLE12=Motor City Josh - Goin' Down Slow
EXTD=
EXTT0=
EXTT1=
EXTT2=
EXTT3=
EXTT4=
EXTT5=
EXTT6=
EXTT7=
EXTT8=
EXTT9=
EXTT10=
EXTT11=
EXTT12=
PLAYORDER=
